<mxfile host="app.diagrams.net" modified="2023-09-28T07:57:01.488Z" agent="Mozilla/5.0 (X11; Linux x86_64) AppleWebKit/537.36 (KHTML, like Gecko) Chrome/117.0.0.0 Safari/537.36" version="21.8.2" etag="CUw5rZeQt1asfIkdtSVh" type="github">
  <diagram name="Pagina-1" id="9GqHKpB-TCk1kXblko_V">
    <mxGraphModel>
      <root>
        <mxCell id="0" />
        <mxCell id="1" parent="0" />
      </root>
    </mxGraphModel>
  </diagram>
</mxfile>
